<svg xmlns="http://www.w3.org/2000/svg" width="120.408" height="128.483" viewBox="0 0 120.408 128.483"><g transform="translate(-842.625 -132.393)"><g transform="translate(842.626 132.393)"><g transform="translate(22.396 35.482)"><path d="M312.195,417.62a39.127,39.127,0,1,1,27.667-11.46A38.872,38.872,0,0,1,312.195,417.62Zm0-74.924a35.8,35.8,0,1,0,35.8,35.8A35.837,35.837,0,0,0,312.195,342.7Z" transform="translate(-273.067 -339.364)"/></g><g transform="translate(33.216 46.302)"><path d="M366.316,460.923a28.309,28.309,0,1,1,28.308-28.308A28.34,28.34,0,0,1,366.316,460.923Zm0-53.285a24.976,24.976,0,1,0,24.976,24.977A25,25,0,0,0,366.316,407.638Z" transform="translate(-338.008 -404.306)"/></g><g transform="translate(105.748 0.02)"><path d="M786.36,254.955h-7.472a1.666,1.666,0,0,1-1.666-1.67l.106-43.259c-7.774-54.633-2.661-73.881,3-80.406,2.434-2.805,4.844-3.108,5.766-3.108a3.392,3.392,0,0,1,.534.037,1.666,1.666,0,0,1,1.4,1.644v125.1A1.666,1.666,0,0,1,786.36,254.955Zm-5.8-3.332h4.136V130.256a6.643,6.643,0,0,0-1.849,1.547c-2.025,2.334-4.657,7.658-5.7,19.772-1.193,13.9-.017,33.452,3.495,58.1a1.687,1.687,0,0,1,.017.239Z" transform="translate(-773.366 -126.511)"/></g><g transform="translate(6.505)"><path d="M179.347,162.974a1.666,1.666,0,0,1-1.666-1.666V128.059a1.666,1.666,0,1,1,3.332,0v33.249A1.666,1.666,0,0,1,179.347,162.974Z" transform="translate(-177.681 -126.393)"/><g transform="translate(7.291)"><path d="M223.109,162.974a1.666,1.666,0,0,1-1.666-1.666V128.059a1.666,1.666,0,1,1,3.332,0v33.249A1.666,1.666,0,0,1,223.109,162.974Z" transform="translate(-221.443 -126.393)"/></g></g><path d="M149.836,254.876a4.746,4.746,0,0,1-3.62-1.449,6.584,6.584,0,0,1-1.372-4.964c1.228-25.092,1.711-43.992,1.436-56.178-.211-9.337-.825-11.636-.952-12.015-5.584-7.969-6.625-13.863-6.666-14.111a1.654,1.654,0,0,1-.023-.276V128.059a1.666,1.666,0,1,1,3.332,0v37.662c.173.821,1.383,5.907,6.053,12.588.474.543,1.162,2.189,1.489,10.636.457,11.792-.007,32.45-1.343,59.742q0,.073-.014.145a3.418,3.418,0,0,0,.5,2.328c.1.109.414.443,1.424.375a1.666,1.666,0,0,1,.219,3.325Q150.062,254.876,149.836,254.876Z" transform="translate(-138.639 -126.393)"/><g transform="translate(10.413)"><path d="M203.162,254.876q-.225,0-.465-.016a1.666,1.666,0,0,1,.219-3.325c1.009.066,1.321-.266,1.424-.375a3.425,3.425,0,0,0,.5-2.338c-.007-.048-.01-.087-.012-.136-1.336-27.292-1.8-47.95-1.343-59.742.328-8.448,1.015-10.093,1.489-10.636,4.664-6.673,5.877-11.754,6.053-12.589V128.059a1.666,1.666,0,1,1,3.332,0v37.823a1.655,1.655,0,0,1-.023.277c-.042.248-1.083,6.141-6.666,14.11-.127.38-.741,2.679-.952,12.015-.275,12.187.208,31.086,1.436,56.178a6.585,6.585,0,0,1-1.372,4.964A4.746,4.746,0,0,1,203.162,254.876Z" transform="translate(-201.14 -126.393)"/></g></g></g></svg>