<svg xmlns="http://www.w3.org/2000/svg" width="153.916" height="143.872" viewBox="0 0 153.916 143.872"><g transform="translate(-17.542 -21.057)"><path d="M157.229,107.2c-3.119,2.746-5.814,5.12-11.429,5.12-.185,0-.342-.024-.521-.028l10.513-19.847a2.112,2.112,0,0,0,.246-.991,9.589,9.589,0,0,0-9.578-9.577H42.537a9.587,9.587,0,0,0-9.575,9.577,2.113,2.113,0,0,0,.247.991l10.506,19.845c-.179.006-.336.03-.522.03-5.613,0-8.306-2.372-11.425-5.119-3.287-2.9-7.012-6.178-14.225-6.178v4.236c5.614,0,8.307,2.374,11.426,5.12,3.286,2.895,7.012,6.176,14.224,6.176s10.935-3.282,14.221-6.176c3.118-2.748,5.811-5.12,11.422-5.12s8.309,2.374,11.428,5.12c3.287,2.895,7.014,6.176,14.225,6.176s10.941-3.282,14.228-6.176c3.119-2.746,5.813-5.12,11.426-5.12s8.31,2.374,11.429,5.12c3.287,2.895,7.017,6.176,14.228,6.176s10.941-3.282,14.228-6.176c3.122-2.746,5.813-5.12,11.429-5.12v-4.236C164.245,101.025,160.516,104.308,157.229,107.2Zm-22.857,0c-3.287-2.895-7.014-6.176-14.228-6.176s-10.938,3.282-14.225,6.176c-3.119,2.746-5.813,5.12-11.429,5.12s-8.307-2.372-11.426-5.12c-3.287-2.895-7.014-6.176-14.227-6.176S57.9,104.308,54.615,107.2a19.7,19.7,0,0,1-6.508,4.332L37.221,90.971a5.346,5.346,0,0,1,5.318-4.855H146.461a5.349,5.349,0,0,1,5.321,4.855l-10.891,20.564A19.729,19.729,0,0,1,134.371,107.2Z" transform="translate(0 25.064)"/><path d="M145.8,123.241c-5.616,0-8.31-2.374-11.429-5.12-3.287-2.895-7.014-6.176-14.228-6.176s-10.938,3.282-14.225,6.176c-3.119,2.746-5.813,5.12-11.429,5.12s-8.307-2.372-11.426-5.12c-3.287-2.895-7.014-6.176-14.227-6.176S57.9,115.226,54.615,118.12c-3.118,2.748-5.811,5.12-11.422,5.12s-8.306-2.372-11.425-5.119c-3.287-2.9-7.012-6.178-14.225-6.178v4.236c5.614,0,8.307,2.374,11.426,5.12,3.286,2.895,7.012,6.176,14.224,6.176S54.127,124.2,57.413,121.3c3.118-2.748,5.811-5.12,11.422-5.12s8.309,2.374,11.428,5.12c3.287,2.895,7.014,6.176,14.225,6.176s10.941-3.282,14.228-6.176c3.119-2.746,5.813-5.12,11.426-5.12s8.31,2.374,11.429,5.12c3.287,2.895,7.017,6.176,14.228,6.176s10.941-3.282,14.228-6.176c3.122-2.746,5.814-5.12,11.429-5.12v-4.236c-7.211,0-10.941,3.282-14.228,6.176C154.109,120.868,151.415,123.241,145.8,123.241Z" transform="translate(0 37.452)"/><path d="M43.222,98.432H78.816a2.119,2.119,0,0,0,2.118-2.118V23.174a2.118,2.118,0,0,0-4.023-.926L41.317,95.386a2.119,2.119,0,0,0,1.9,3.046ZM76.7,32.365V94.194H46.608Z" transform="translate(9.709)"/><path d="M76.888,88.153h35.591a2.118,2.118,0,0,0,1.545-3.567L78.433,46.669a2.119,2.119,0,0,0-3.663,1.45V86.037A2.119,2.119,0,0,0,76.888,88.153ZM79.006,53.47l28.58,30.447H79.006Z" transform="translate(23.582 10.279)"/></g></svg>