<svg xmlns="http://www.w3.org/2000/svg" width="128.654" height="152.071" viewBox="0 0 128.654 152.071"><g transform="translate(45.096 14.148) rotate(22)"><g transform="translate(-1.742 -13.828)"><path d="M35.473,3.3c-3.543,0-7.086.029-10.633.106a2.516,2.516,0,0,0-.308.062,2.384,2.384,0,0,0-.47.191l-.191.132a1.938,1.938,0,0,0-.474.565,1.706,1.706,0,0,0-.18.47,1.875,1.875,0,0,0,.408,1.623,1.958,1.958,0,0,0,.444.367,1.772,1.772,0,0,0,.676.239c3.73.018,7.2.044,10.673.07l3.661.029-.015,3.657c-.022,4.8-.022,9.59.051,14.385l.048,3.3L35.88,28.9a42.612,42.612,0,0,0-10.526,2.666,44.646,44.646,0,0,0-5.177,2.456c-.576.323-1.182.683-1.777,1.05a45.765,45.765,0,0,0-3.778,2.651A43.468,43.468,0,0,0,7.7,44.568,42.7,42.7,0,0,0,.328,58.161,43.242,43.242,0,0,0-.127,83.087a42.471,42.471,0,0,0,5.4,11.786,43.006,43.006,0,0,0,10.167,10.794,42.564,42.564,0,0,0,13.886,6.881A42.76,42.76,0,0,0,74.05,98.6,42.809,42.809,0,0,0,53.757,30.517a42.268,42.268,0,0,0-7.633-1.623l-3.253-.382.143-21.328H46.66c3.525,0,7.049-.029,10.574-.106a2.062,2.062,0,0,0,.694-.213,1.873,1.873,0,0,0,.889-1.057,1.708,1.708,0,0,0,.084-.54,1.876,1.876,0,0,0-.958-1.638,2.025,2.025,0,0,0-.955-.224c-3.389,0-6.855-.026-10.317-.048l-3.635-.026L43.025-.3c-.015-3.962-.055-7.92-.154-11.878a2.154,2.154,0,0,0-.187-.624,1.678,1.678,0,0,0-.312-.444,2,2,0,0,0-1.428-.58,2.269,2.269,0,0,0-.8.228,2.752,2.752,0,0,0-.444.349,1.814,1.814,0,0,0-.463.881,2.744,2.744,0,0,0-.04.463c0,3.8-.026,7.685-.055,11.569L39.115,3.3Zm5.6,107.2A39.388,39.388,0,0,1,29.87,108.88a38.632,38.632,0,0,1-12.6-6.44,39.218,39.218,0,0,1-9.183-9.983A38.771,38.771,0,0,1,3.277,81.618a39.53,39.53,0,0,1,.7-22.778,38.946,38.946,0,0,1,7.182-12.7,39.573,39.573,0,0,1,6.484-6.106A40.41,40.41,0,0,1,21.146,37.7l.822-.477a41.688,41.688,0,0,1,4.725-2.243,38.892,38.892,0,0,1,10.839-2.563,39.557,39.557,0,0,1,15.134,1.608A39.205,39.205,0,0,1,79.043,62.082a39.269,39.269,0,0,1-1.1,22.294A39.344,39.344,0,0,1,60.5,105.318,39.284,39.284,0,0,1,45.037,110.3,38.474,38.474,0,0,1,41.076,110.5Z" transform="translate(1.742 13.828)" stroke="#000" stroke-width="1"/></g></g></svg>