<svg xmlns="http://www.w3.org/2000/svg" width="115.21" height="137.622" viewBox="0 0 115.21 137.622"><g transform="translate(-16.181 -10.5)"><path d="M16.214,133.868a1.791,1.791,0,0,0,1.219,2.09l24.911,6.1h.348a1.834,1.834,0,0,0,1.742-1.394,1.791,1.791,0,0,0-1.219-2.09l-11.149-2.613,9.059-39.545h0a10.084,10.084,0,0,0,5.226-1.568c7.665-4.7,15.33-19.337,19.511-37.106,1.568-6.794,4.878-24.04,5.226-30.834A1.7,1.7,0,0,0,69.7,25.164l-26.3-6.446a1.777,1.777,0,0,0-2.09,1.045c-2.787,6.271-7.317,23.169-8.884,29.963-4.529,19.859-3.658,41.635,5.226,45.99l-9.059,39.545L18.13,132.649A1.446,1.446,0,0,0,16.214,133.868ZM67.6,28.126c-.523,5.575-2.265,15.33-3.658,22.647a12.012,12.012,0,0,0-6.1-3.484,12.871,12.871,0,0,0-9.581,1.394C46,49.727,44.087,50.6,40.951,49.9a7.423,7.423,0,0,1-4.181-2.439c1.742-7.142,5.052-18.988,7.317-25.086Zm-23,63.759a5.429,5.429,0,0,1-4.355,1.045c-6.271-1.568-9.407-18.988-4.355-41.635a9.182,9.182,0,0,0,4.355,1.916,12.871,12.871,0,0,0,9.581-1.394C52.1,50.772,54.017,49.9,57.152,50.6s4.529,2.439,5.923,4.355h0a8.989,8.989,0,0,0-.348,1.916C58.72,73.593,51.578,87.53,44.61,91.885Z" transform="translate(0 6.066)"/><path d="M50.653,26.907c-.174,1.742-3.31,41.461,12.717,55.92a19.957,19.957,0,0,0,13.762,5.226,25.989,25.989,0,0,0,3.658-.348l9.059,47.384-10.8,2.09a1.807,1.807,0,0,0-1.394,2.09,1.7,1.7,0,0,0,1.742,1.394h.348l24.911-4.7a1.777,1.777,0,1,0-.7-3.484l-10.627,1.916L84.275,87.007c6.794-1.568,11.5-5.226,14.459-10.8,9.755-19.337-7.665-55.223-8.362-56.617a1.651,1.651,0,0,0-1.916-.871l-17.769,3.31c-.174,0-.174,0-.348.174H69.99l-17.769,3.31A1.525,1.525,0,0,0,50.653,26.907Zm40.59,3.484a21.522,21.522,0,0,0-10.278-.348A23.382,23.382,0,0,0,70.512,34.92,19.1,19.1,0,0,1,61.454,39.1a17.75,17.75,0,0,1-7.491,0c0-4.878.174-8.71.174-10.627l16.549-3.136c.174,0,.174,0,.348-.174h.348l16.549-3.136C88.456,23.771,89.675,26.732,91.243,30.391ZM53.963,42.585a21.744,21.744,0,0,0,3.658.348,22.6,22.6,0,0,0,4.529-.523A23.382,23.382,0,0,0,72.6,37.533a19.1,19.1,0,0,1,9.059-4.181,19.9,19.9,0,0,1,9.93.523l1.045.348v-.174c4.181,12.02,8.536,29.615,3.136,40.416-2.613,5.052-6.968,8.188-13.414,9.407h-.7c-6.446,1.219-11.672,0-15.853-3.833C56.924,72.2,54.486,55.3,53.963,42.585Z" transform="translate(25.314 6.066)"/><path d="M47.374,21.3,47.2,12.242A1.646,1.646,0,0,1,48.942,10.5h0a1.746,1.746,0,0,1,1.742,1.742l.174,9.059a1.646,1.646,0,0,1-1.742,1.742h0A1.746,1.746,0,0,1,47.374,21.3Z" transform="translate(23.018 0)"/><path d="M45.279,23.056a2.079,2.079,0,0,1-1.568-.871l-4.7-7.839a1.764,1.764,0,1,1,2.961-1.916l4.7,7.839a1.875,1.875,0,0,1-.523,2.439A1.126,1.126,0,0,1,45.279,23.056Z" transform="translate(16.752 0.857)"/><path d="M60.568,12.007a1.713,1.713,0,0,1,.523,2.439l-4.878,7.839a1.776,1.776,0,0,1-1.394.871c-.348,0-.7,0-.871-.348a1.713,1.713,0,0,1-.523-2.439L58.3,12.53A1.618,1.618,0,0,1,60.568,12.007Z" transform="translate(27.419 0.932)"/></g></svg>